HIERARCHY
ROOT hip
{
  OFFSET 0 0 0
  CHANNELS 6 Xposition Yposition Zposition Zrotation Yrotation Xrotation
  JOINT abdomen
  {
    OFFSET 0 20.6881 -0.73152
    CHANNELS 3 Zrotation Xrotation Yrotation
    JOINT chest
    {
      OFFSET 0 11.7043 -0.48768
      CHANNELS 3 Zrotation Xrotation Yrotation
      JOINT neck
      {
        OFFSET 0 22.1894 -2.19456
        CHANNELS 3 Zrotation Xrotation Yrotation
        JOINT head
        {
          OFFSET -0.24384 7.07133 1.2192
          CHANNELS 3 Zrotation Xrotation Yrotation
          JOINT leftEye
          {
            OFFSET 4.14528 8.04674 8.04672
            CHANNELS 3 Zrotation Xrotation Yrotation
            End Site
            {
              OFFSET 1 0 0
            }
          }
          JOINT rightEye
          {
            OFFSET -3.6576 8.04674 8.04672
            CHANNELS 3 Zrotation Xrotation Yrotation
            End Site
            {
              OFFSET 1 0 0
            }
          }
        }
      }
      JOINT rCollar
      {
        OFFSET -2.68224 19.2634 -4.8768
        CHANNELS 3 Zrotation Xrotation Yrotation
        JOINT rShldr
        {
          OFFSET -8.77824 -1.95073 1.46304
          CHANNELS 3 Zrotation Xrotation Yrotation
          JOINT rForeArm
          {
            OFFSET -28.1742 -1.7115 0.48768
            CHANNELS 3 Zrotation Xrotation Yrotation
            JOINT rHand
            {
              OFFSET -22.5879 0.773209 7.07136
              CHANNELS 3 Zrotation Xrotation Yrotation
              JOINT rThumb1
              {
                OFFSET -1.2192 -0.487915 3.41376
                CHANNELS 3 Zrotation Xrotation Yrotation
                JOINT rThumb2
                {
                  OFFSET -3.37035 -0.52449 3.41376
                  CHANNELS 3 Zrotation Xrotation Yrotation
                  End Site
                  {
                    OFFSET -1.78271 -1.18214 1.43049
                  }
                }
              }
              JOINT rIndex1
              {
                OFFSET -7.75947 0.938293 5.60832
                CHANNELS 3 Zrotation Xrotation Yrotation
                JOINT rIndex2
                {
                  OFFSET -2.54057 -0.884171 1.56538
                  CHANNELS 3 Zrotation Xrotation Yrotation
                  End Site
                  {
                    OFFSET -1.62519 -0.234802 1.16502
                  }
                }
              }
              JOINT rMid1
              {
                OFFSET -8.24714 1.18213 3.41376
                CHANNELS 3 Zrotation Xrotation Yrotation
                JOINT rMid2
                {
                  OFFSET -3.10165 -0.590103 1.0647
                  CHANNELS 3 Zrotation Xrotation Yrotation
                  End Site
                  {
                    OFFSET -2.48547 -0.328903 0.83742
                  }
                }
              }
              JOINT rRing1
              {
                OFFSET -8.82822 0.546677 1.51678
                CHANNELS 3 Zrotation Xrotation Yrotation
                JOINT rRing2
                {
                  OFFSET -2.60934 -0.819778 -0.0198488
                  CHANNELS 3 Zrotation Xrotation Yrotation
                  End Site
                  {
                    OFFSET -2.33842 -0.294052 0.168128
                  }
                }
              }
              JOINT rPinky1
              {
                OFFSET -8.27202 -0.0477905 -0.4584
                CHANNELS 3 Zrotation Xrotation Yrotation
                JOINT rPinky2
                {
                  OFFSET -1.82734 -0.647385 -0.700984
                  CHANNELS 3 Zrotation Xrotation Yrotation
                  End Site
                  {
                    OFFSET -1.69225 -0.51767 -0.607171
                  }
                }
              }
            }
          }
        }
      }
      JOINT lCollar
      {
        OFFSET 2.68224 19.2634 -4.8768
        CHANNELS 3 Zrotation Xrotation Yrotation
        JOINT lShldr
        {
          OFFSET 8.77824 -1.95073 1.46304
          CHANNELS 3 Zrotation Xrotation Yrotation
          JOINT lForeArm
          {
            OFFSET 28.1742 -1.7115 0.48768
            CHANNELS 3 Zrotation Xrotation Yrotation
            JOINT lHand
            {
              OFFSET 22.5879 0.773209 7.07136
              CHANNELS 3 Zrotation Xrotation Yrotation
              JOINT lThumb1
              {
                OFFSET 1.2192 -0.487915 3.41376
                CHANNELS 3 Zrotation Xrotation Yrotation
                JOINT lThumb2
                {
                  OFFSET 3.37035 -0.52449 3.41376
                  CHANNELS 3 Zrotation Xrotation Yrotation
                  End Site
                  {
                    OFFSET 1.78271 -1.18214 1.43049
                  }
                }
              }
              JOINT lIndex1
              {
                OFFSET 7.75947 0.938293 5.60832
                CHANNELS 3 Zrotation Xrotation Yrotation
                JOINT lIndex2
                {
                  OFFSET 2.54057 -0.884171 1.56538
                  CHANNELS 3 Zrotation Xrotation Yrotation
                  End Site
                  {
                    OFFSET 1.62519 -0.234802 1.16502
                  }
                }
              }
              JOINT lMid1
              {
                OFFSET 8.24714 1.18213 3.41376
                CHANNELS 3 Zrotation Xrotation Yrotation
                JOINT lMid2
                {
                  OFFSET 3.10165 -0.590103 1.0647
                  CHANNELS 3 Zrotation Xrotation Yrotation
                  End Site
                  {
                    OFFSET 2.48547 -0.328903 0.83742
                  }
                }
              }
              JOINT lRing1
              {
                OFFSET 8.82822 0.546677 1.51678
                CHANNELS 3 Zrotation Xrotation Yrotation
                JOINT lRing2
                {
                  OFFSET 2.60934 -0.819778 -0.0198488
                  CHANNELS 3 Zrotation Xrotation Yrotation
                  End Site
                  {
                    OFFSET 2.33842 -0.294052 0.168128
                  }
                }
              }
              JOINT lPinky1
              {
                OFFSET 8.27202 -0.0477905 -0.4584
                CHANNELS 3 Zrotation Xrotation Yrotation
                JOINT lPinky2
                {
                  OFFSET 1.82734 -0.647385 -0.700984
                  CHANNELS 3 Zrotation Xrotation Yrotation
                  End Site
                  {
                    OFFSET 1.69225 -0.51767 -0.607171
                  }
                }
              }
            }
          }
        }
      }
    }
  }
  JOINT rButtock
  {
    OFFSET -8.77824 4.35084 1.2192
    CHANNELS 3 Zrotation Xrotation Yrotation
    JOINT rThigh
    {
      OFFSET 0 -1.70687 -2.19456
      CHANNELS 3 Zrotation Xrotation Yrotation
      JOINT rShin
      {
        OFFSET 0 -36.8199 0.73152
        CHANNELS 3 Zrotation Xrotation Yrotation
        JOINT rFoot
        {
          OFFSET 0.73152 -45.1104 -5.12064
          CHANNELS 3 Zrotation Xrotation Yrotation
          End Site
          {
            OFFSET -1.1221 -3.69964 12.103
          }
        }
      }
    }
  }
  JOINT lButtock
  {
    OFFSET 8.77824 4.35084 1.2192
    CHANNELS 3 Zrotation Xrotation Yrotation
    JOINT lThigh
    {
      OFFSET 0 -1.70687 -2.19456
      CHANNELS 3 Zrotation Xrotation Yrotation
      JOINT lShin
      {
        OFFSET 0 -36.8199 0.73152
        CHANNELS 3 Zrotation Xrotation Yrotation
        JOINT lFoot
        {
          OFFSET -0.73152 -45.1104 -5.12064
          CHANNELS 3 Zrotation Xrotation Yrotation
          End Site
          {
            OFFSET 1.1221 -3.69964 12.103
          }
        }
      }
    }
  }
}
MOTION
Frames:	4
Frame Time:	0.03333
115.07320000000001 1.2028 -17.9558 84.137054 -33.138393 -26.933759 -107.478179 -24.324219 164.843333 116.904299 4.280639 117.30552 0.350139 -11.069704 89.60898 -86.209513 11.098478 88.30282 -30.7591 -1.170581 4.253891 -53.494577 9.426308 -18.581368 92.816989 -54.129177 73.053224 -20.72511 11.632516 -176.031061 163.347759 0.867922 -24.067003 110.84927 -80.963346 -72.971781 96.090039 -63.586882 -117.112654 -179.850225 27.315747 -93.263526 -76.391426 -60.370916 -167.437748 173.046388 56.924104 58.611062 90.76503 -5.597268 -138.232346 59.734121 -43.524052 -145.473142 44.973374 1.340281 5.902454 -129.440836 -31.685881 31.023181 -3.061868 50.447112 -167.118084 29.384334 53.506742 135.079688 34.835571 10.653883 -116.436331 -60.588646 -43.19014 65.414788 -179.148563 6.078744 97.215072 -28.348649 -37.121386 148.587698 -115.084165 -76.103769 142.985999 -129.622806 48.009372 34.467031 -52.595471 41.921252 118.986136 -146.236382 68.54774 43.973113 -21.940155 -67.474312 165.771191 125.940725 62.10928 42.984972 125.961918 4.909336 16.038488 176.533423 25.832509 -0.552013 -134.277212 -10.995253 -76.618698 102.961779 5.785956 -11.578221 85.876572 -0.431172 -82.887489 -56.561613 -48.279724 -49.261083 -10.454969 -54.61083 -89.287598 125.957267 -63.061789 28.051949 -0.456435 26.543171 93.169509 71.74577 27.381532 30.197557 143.054963 -22.248666 8.251415 120.578611 73.582 -5.783665
117.2421 1.2170999999999998 -18.2815 84.437796 -33.744357 -27.568361 -111.818514 -21.526639 46.599414 -130.215293 53.586594 -28.51042 -16.806935 -3.140863 -112.863754 88.78911 9.947223 -112.134682 -30.225015 -1.912765 7.074532 -53.272952 8.118956 -16.107639 -82.778913 30.426377 85.464239 51.320527 4.791216 -171.75537 -8.441418 82.277259 -162.68387 -11.944085 3.379858 -166.65372 167.044603 18.690531 -62.862881 126.362687 -5.854564 -91.644631 -94.349486 -42.989298 171.288286 -26.970865 -54.234832 48.213116 -69.793669 36.452304 -87.706854 100.46097 -74.09042 -112.627744 -99.04166 4.115859 173.853182 128.207249 -41.492698 -65.490586 107.152949 78.026778 71.941995 -2.77616 4.644392 -144.473836 -87.089582 6.42469 -41.870154 -104.834883 -32.286223 155.912826 69.598312 14.800192 -137.911024 -141.089382 -50.387796 41.060111 148.959342 75.637761 50.996544 92.101564 64.541909 76.10652 -156.083503 13.398085 145.787762 -169.922898 49.5186 -16.042592 -23.223557 -72.974556 159.359008 -0.462888 70.2875 159.232665 128.038905 18.257691 13.42309 174.951186 0.462755 1.5445 8.162749 -6.442077 -141.809792 -53.382107 -65.892046 51.700616 86.06397 -0.222039 -82.873407 -56.784955 -47.883202 -49.337269 -6.337268 -60.259229 -30.866223 -129.680724 84.417197 45.13839 -54.589343 65.830385 -180.0 23.4954 -1.787419 1.271417 139.154922 -8.467646 -178.444184 -48.166532 -5.997788 -85.911982
119.40010000000001 1.2235 -18.5986 84.461977 -33.444405 -27.665972 -107.570851 -24.950293 -153.837921 122.71572 -32.084135 138.709323 -19.088865 -8.332792 -79.737532 82.445319 -23.154125 -116.293819 -30.943169 -2.004789 7.234096 -53.467515 8.282128 -16.359668 -90.766458 29.069269 90.882055 -132.759264 9.360936 -14.210791 176.446983 -69.566977 -1.780419 -10.728895 -1.56116 -167.202354 -0.936339 -14.617308 155.354967 95.390832 -12.904868 -146.638902 29.704906 -41.774722 -55.236509 -174.142463 -51.136038 -150.105966 -152.263642 -7.963361 -80.766904 7.358545 2.939249 175.248127 -99.396144 2.380093 174.86468 -155.970404 40.518442 -43.710722 141.677181 3.936531 12.760407 -22.590812 80.556686 -89.453681 -56.358883 24.370347 -57.948215 -89.379125 2.291667 128.441299 129.215627 61.7621 142.122992 -52.720753 -54.985239 126.161155 -35.442717 6.73059 -141.938614 -97.410773 21.643721 111.766065 -165.799283 9.521291 145.895305 -161.280072 57.819226 -29.134412 -0.495607 -40.574172 -172.436771 -38.634748 1.708971 -167.342743 132.209025 -5.530779 19.759914 176.459518 29.759305 -0.000321 -0.645597 -1.798427 -141.063366 -63.879924 -57.429041 44.364249 85.188426 7.9713 -89.331203 -45.618929 -54.060027 128.390728 0.538884 51.88476 89.982666 -75.188827 18.05823 1.693318 -36.95768 -36.075493 21.735413 -157.0162 68.258275 -0.0 157.00535 -38.578309 22.799606 111.71047 -60.205983 163.008508
121.5527 1.228 -18.8896 84.34579 -32.702991 -27.434078 -106.51787 -23.648553 150.836275 119.568445 17.411781 108.542075 -15.177772 -16.904749 -17.221839 15.143187 -75.981043 -179.55564 -32.300104 -1.475462 5.092077 -53.835762 9.524635 -18.636813 -49.945887 25.648769 63.163619 -1.912911 -84.271018 132.761229 42.025725 -66.141534 -144.14177 -2.217027 -33.266689 -169.773277 2.897783 -25.029617 157.917713 34.741437 32.159034 -175.818944 35.663853 60.514092 -16.432572 144.799159 56.354772 -99.193244 -173.844477 -18.166813 -88.415185 -7.255922 42.432117 178.967098 45.121212 -2.373145 3.586692 61.478046 22.696244 133.709868 58.178424 80.777924 121.824558 -11.053143 19.883719 -156.218043 137.033773 -53.676539 -94.501189 -154.791296 -1.81153 -56.63006 167.194552 20.886186 104.42738 -44.252312 -39.134383 137.188646 101.334731 86.64008 85.952547 -154.213423 -12.237563 133.938204 -51.632693 44.047068 117.029587 -34.600865 -69.995578 139.387796 -163.340655 8.151868 22.055826 2.378702 10.437708 160.96231 -145.944922 -55.009095 110.607591 166.863789 52.935081 3.492538 -84.126668 16.813487 -98.766429 -25.951802 27.349928 105.111909 85.178564 -0.663192 -82.905496 -55.507394 -47.527302 -47.792936 9.392952 -59.648967 63.435313 -61.45518 25.42844 -170.261045 -104.667154 -2.608876 -71.61882 -62.055201 13.980863 124.825619 -133.201094 16.895274 94.595936 -145.418485 -13.408514 -164.412968
